<?xml version="1.0" encoding="UTF-8"?> <svg xmlns="http://www.w3.org/2000/svg" id="uuid-777da113-8453-41a1-aed4-bdd3c08c5372" data-name="Layer 2" width="480" height="480" viewBox="0 0 480 480"><g id="uuid-deb444c4-0b8b-40f3-b10c-42e9c82233fc" data-name="Layer 1"><rect width="480" height="480" style="fill: none; stroke-width: 0px;"></rect><g><path d="M410.05537,48.95715v8.76562l-170.06193-29.80415-170.04882,29.80415v-8.76562l170.04882-30.00046,170.06193,30.00046Z" style="fill: #fff; fill-rule: evenodd; stroke-width: 0px;"></path><path d="M410.05537,39.9926v8.96454l-170.06193-30.00045-170.04882,30.00046v-8.96454L239.99345,10l170.06193,29.9926Z" style="fill: #33a457; fill-rule: evenodd; stroke-width: 0px;"></path><path d="M410.05537,57.72276l-170.06193-29.80415-170.04882,29.80415.00262,30.24126,1.47359-.83495c.59938-.33502,60.94055-33.79043,168.89979-33.79043,107.96711,0,167.60421,33.46325,168.2088,33.79566l1.4579.83756.06805-30.2491Z" style="fill: #cc2131; fill-rule: evenodd; stroke-width: 0px;"></path><path d="M240.32324,59.18326c97.49232,0,154.5801,27.43542,163.83256,32.24617v87.05943c0,47.46365-11.17884,94.7467-33.21197,140.56138-48.22792,100.06781-120.79751,139.36-130.94772,144.48746-10.15806-5.12745-82.78262-44.41961-130.99745-144.48746-22.03318-45.8147-33.20941-93.09773-33.20941-140.56138v-87.04896c9.33621-4.80551,67.02336-32.25664,164.53399-32.25664h0Z" style="fill: #fff22d; fill-rule: evenodd; stroke-width: 0px;"></path><path d="M71.42345,87.12646l-1.47359.83495v90.52745c0,48.35355,11.36729,96.49511,33.78781,143.08191,52.63298,109.27578,134.23253,147.50266,135.04916,147.87696l1.20923.55226,1.20661-.55226c.82448-.3743,82.35598-38.61165,134.98634-147.87696,22.43096-46.58681,33.8009-94.72837,33.8009-143.08191v-90.51961l-1.4579-.83756c-.60199-.3324-60.24173-33.79566-168.2088-33.79566-107.95924,0-168.30041,33.45541-168.89979,33.79043h.00002ZM240.32324,59.18327c97.49232,0,154.5801,27.43541,163.83256,32.24617v87.05942c0,47.46365-11.17884,94.7467-33.21197,140.56138-48.22792,100.06781-120.79751,139.36-130.94772,144.48746-10.15806-5.12745-82.78262-44.41961-130.99745-144.48746-22.03318-45.8147-33.20941-93.09773-33.20941-140.56138v-87.04896c9.33621-4.80551,67.02336-32.25664,164.53399-32.25664h0Z" style="fill-rule: evenodd; stroke-width: 0px;"></path><path d="M265.85845,379.17415c2.83201,1.95781.77736,5.35778-1.31916,5.88911-2.1829.59416-4.04909-1.82956-5.10651.82708-.59414,1.42647,1.01816,12.23364,12.07399,12.23364,10.32035,0,15.24364-13.24919,16.21469-15.24366.97629-1.9892,1.60445-4.52806.62817-4.52806-4.52808,0-5.84724,2.68803-5.84724,2.68803,0,0-.34287-2.58599,1.90806-4.53853,1.85572-1.59397,4.28989-1.20661,5.16933-1.20661,1.84526,0,1.55473-1.37411,2.66972-4.09358,2.54148-6.39952,4.28989-6.6874,5.94145-9.60579,1.3689-2.3766-1.21707-3.30839-6.31837-3.78737-5.11699-.48685-7.85738-.28005-10.14236.05236-2.29021.32717-4.56996,1.25633-5.9912,4.75839-.76166,1.89762.6334,3.7664,3.31361,3.28219,2.67759-.49991,5.25572-2.52577,5.25572-2.52577,0,0-1.20661,4.79505-5.20336,5.78703-3.70622.91087-8.08248-1.32439-7.49357-5.0751.76689-4.8657,4.13024-8.43058,10.26537-9.63195,6.14562-1.23804,12.27031-.29051,17.73278,1.05217,5.44416,1.37411,9.45137.5418,14.51339.24602,10.91451-.5837,17.67783-3.15918,17.67783-3.15918,0,0-4.91806,3.99149-11.73635,5.83676-6.81829,1.86096-12.89847,1.08883-14.86674,1.86096-1.58876.68051-3.83446,3.83446-5.68495,7.43859-1.7013,3.31363-3.51254,7.13239-2.72993,7.13239,6.3393.24079,8.66092-1.14642,8.66092-1.14642,0,0-1.25372,2.73516-4.2742,4.02816-2.09653.84805-5.65356.84805-5.65356.84805,0,0-1.59922,4.04909-3.39999,7.70294-1.81385,3.65126-4.78459,9.35454-10.1319,12.17605-5.36826,2.81632-15.63363,6.32883-22.09858-2.97072-6.83922-9.755-.59676-20.85269,5.97286-16.32726l.00006.00008ZM186.48626,380.44622c1.26158,3.22983-1.41862,4.91283-2.97597,4.91283-1.56258,0-3.50728-1.15948-3.913.79305-.37166,1.93688,4.14855,11.92744,14.66519,11.92744,10.52187,0,15.39808-6.08805,14.65735-11.54267-.82448-6.08805-10.49572-8.5065-18.20391-12.56082-3.77166-1.97873-12.29646-3.30312-12.29646-11.28355,0-17.03916,25.93042-6.1561,25.93042-6.1561,0,0,.05497-2.13054,1.26158-2.23002.58368-.05495,1.75626-.28528,2.14625,1.6411.38476,1.94211,2.09915,12.17605,2.09915,12.17605,0,0-3.81091-7.79197-14.26999-11.19453-1.85049-.64911-9.94082-2.18813-9.89371,4.21659.09685,3.80307,4.73223,5.50958,12.76759,8.62951,10.56113,4.1407,15.97127,7.99609,13.47692,19.09904-2.37396,10.6606-12.79639,12.41424-17.86364,12.41424-5.05678,0-16.69367-3.54654-16.69367-15.24366,0-8.27094,8.11389-8.07724,9.10589-5.5986v.00012ZM241.89366,316.37788l4.25848,2.01801c2.45512.95011,4.02293.53134,4.58565.29576.59414-.2565,2.84248-2.66972,3.33194-4.72438.23032-.83756.10731-1.56519-.33764-2.10176-1.65681-1.96304-4.59089-10.97993-5.67972-15.85349-.40308-1.80862.08637-6.79996.4659-10.81766.3324-3.44971.53657-5.59335.36382-6.14562-.29053-.85326-1.56519-1.67774-3.03092-2.60692l-2.32162-1.58089c-1.23802-1.01293-1.293-2.39229-1.36103-3.87374l-.24604-2.30067c-.53918-2.14102-11.43536-13.27014-13.12356-13.37222-2.44725-.15965-3.08328,2.52577-3.24032,4.1407-.09685.94488.9946,5.1641,1.97873,8.90434l1.08622,4.50975c1.11501,7.09049,8.65307,19.57804,11.86721,24.90702l1.52594,2.5912c.65958,1.50237.40308,2.68805-.76951,3.35286-1.13856.65435-10.93543-.36905-15.61532-1.44742-2.01014-.46067-4.49144-1.46311-6.91251-2.44463-2.7718-1.10453-5.39967-2.17767-6.91774-2.25357-1.77197-.09162-2.61215.26697-3.26388.56798l-1.06265.29576-1.05742-.33764c-1.29823-.57321-3.72453-1.62017-10.34914-2.21954-9.65554-.90562-10.38055,1.03649-10.77315,2.08605-.47898,1.33487,5.42322,7.61135,6.47802,8.45154,1.34272,1.0836,5.68495,2.73516,8.33636,2.29544,3.03092-.48683,7.97255-1.0993,8.58502-.97629l.9946.60724.92393.65435c.83756.34287,6.2346.63865,7.86523.72502,1.8819.10208,6.82353,1.12548,10.43551,1.8819l4.03601.814c1.58089.29053,5.65356,2.30067,8.9436,3.95749h.00002Z" style="fill-rule: evenodd; stroke-width: 0px;"></path><path d="M341.7783,191.15439c-.21463-.26435-.39259-.28007-.50514-.25127-.10208.03403-.24079.13088-.28005.44495-.17796,1.34534-1.86619,4.8029-3.20631,5.31329-2.71423,1.04957-4.11978,4.2323-5.13792,6.55131-.52087,1.19615-1.02865,2.33732-1.4317,2.35303-.17273.01308-.36384-.17275-.57319-.56011-1.67253-2.88435-.7355-7.29466.0157-10.84905l.17273-.87159c.61245-2.9969,4.11978-7.19519,6.21629-9.71311l.92656-1.11501c1.42647-1.77982,1.78507-7.81028,1.51809-8.26308-.08639-.02618-.14394.02356-.17796.0759-.03263.02616-.06011.05811-.08115.09423l-.03139-.00523v.03141c-.08639.09423-.15967.1047-.23032.40831-.3743,1.88452-3.81876,5.71375-9.70264,10.80194-1.20661,1.04434-2.58072,2.93148-3.70622,4.44693-.725.9946-1.57568,2.14102-1.80077,2.19598-1.45788-7.77887,1.18045-12.22579,2.43415-14.37466l.5837-1.09145c2.48914-6.77378,8.89909-11.90385,8.96714-11.95098.08639-.1963.08639-.40569-.07065-.53918-.24602-.18845-.69624-.10731-1.40554.24865l-.38736.19368c-2.23526,1.08622-8.97761,4.37103-13.1131,12.28077-2.97074,5.69543-4.11976,12.06091-4.11976,16.86119,0,2.44986.29576,4.48096.7983,5.82629,1.45265,3.87374,3.99675,13.50046,4.77933,17.27996.48683,2.34255.56273,10.38579.56273,15.42685,0,2.46296-.01046,4.18781-.01046,4.25325-.0157,0-1.28251,4.08834-1.28251,4.08834-.00523.04188-.6177,3.23509-5.83678,8.57194-5.25572,5.36826-11.10819,7.0748-11.16053,7.09572-2.35042.18322-4.49406.08637-4.56996-.21986,0-6.13515-10.50618-20.40774-15.88229-25.11642-5.48604-4.80813-9.87014-8.25261-17.31922-12.78593-7.58519-4.61707-16.02101-23.97263-16.11784-24.16108l-.73025-2.61477s-.40831-5.22169-.52085-6.5801c.27483.15704.6334.37951.6334.37951l2.58597,1.50499,2.97074,1.14117c.02618.00785,3.88943.76428,3.88943.76428,0,.00785,2.16195,1.11501,2.16195,1.11501l2.00491,1.30346,3.11731,2.25095,3.20106,1.68297c.06544.01833,3.84494.21201,3.84494.21201l.08637-.31148s-4.37626-2.05466-4.38674-2.05466c0-.06282-1.57566-2.75872-1.57566-2.75872-.61267-.87956-1.22426-1.75989-1.83478-2.64095-.06021-.04188-2.27452-1.36367-2.27452-1.36367-.93731-.14272-1.87613-.27533-2.8163-.39784,0-.02356-.55226-.49731-.83756-.75381.24604-.14396.70932-.43187.70932-.43187,0,.03403,3.01523.38215,3.02569.38215,0,.03141,2.68282,1.85572,2.68282,1.85572l2.92886,2.25618c.04711.02356,2.7718,1.08098,2.7718,1.08098l.35858.14134-1.19615-3.11208c-.74776-.71651-1.50071-1.42759-2.2588-2.13317l-3.31884-2.82155c-.02618-.02356-2.60692-1.35318-2.60692-1.35318-.02618-.00523-2.77965-.93441-2.77965-.93441,0-.00523-2.91315-1.86357-2.91315-1.86357,0,0,.03141-.19891.05234-.36905.36905.14134,4.03339,1.6123,4.03339,1.6123.02095.00262,3.51254.95272,3.51254.95272-.00523-.01308,2.92886,1.12024,2.92886,1.12024-.01046-.01046,4.21137,2.0494,4.21137,2.0494.03664.01833,3.53346.77736,3.53346.77736.06021.00262,4.31346-.75904,4.31346-.75904.05497-.02618,4.10929-2.84771,4.10929-2.84771.04711-.0759.79307-1.75364.79307-1.75364l.15965-.38738-1.30346.53918c-.01046,0-3.68004,1.86357-3.68527,1.86357l-2.54148.56798c0-.01308-2.86865-.57583-2.87389-.57583h.00523c0-.03403-2.32685-2.19859-2.32685-2.19859l-3.30314-3.19844-2.98643-1.52855c-.04188-.01833-3.53346-.58368-3.53346-.58368,0-.00785-2.12531-1.08883-2.16195-1.10714.01046,0,.0157-.03926.0157-.09423,0-.2565-.06544-.81661-.09162-1.07837l4.39197.36905,4.81075-.38738c0,.01308,2.709.56536,2.709.56536l2.74039,1.13071,2.80583.37951.50516.06805-3.12777-2.99166c-.03141-.0157-3.15395-2.27188-3.15395-2.27188-.03664-.01833-2.61738-.96319-2.61738-.96319-.04711-.01046-4.3501-.37428-4.43647-.38215.03664-.00262.04188-.0759.04188-.18322,0-.26173-.04188-.6334-.06544-.82448l2.03371-.3455c0,.01308,3.25603.74596,3.25603.74596,0,.01046,3.08328,1.86096,3.08328,1.86096l3.33194,1.13856c.09685.00262,4.86572-.74596,4.86572-.74596l.2853-.03926-1.45265-1.91855c-.08113-.06282-2.47866-.80877-2.48389-.80877,0-.01308-1.97873-1.47621-1.97873-1.47621l-2.94979-2.07297c-.04188-.02356-2.2431-.77212-2.2431-.77212-.03664-.01308-3.50728-.56798-3.51777-.5706,0-.03664-1.70654-1.60707-1.74318-1.63325.05234-.01046.15965-.5575.19891-.80615l1.83478.51301,2.36088,1.12548,3.35286,1.06265-.74071-1.47883-1.30346-1.36103-1.14117-1.47096.49469-.12301c0,.04449,3.56749,1.86357,3.56749,1.86357l2.77965.94749c0,.0157,2.14625,2.02848,2.14625,2.02848.03141.02618,4.0936,2.31901,4.0936,2.31901l.40831.23032-.74071-1.98399c-.02095-.04449-2.22477-2.86342-2.22477-2.86342l-1.83478-3.17226c-.0157-.03664-3.33717-3.41569-3.33717-3.41569-.03141-.03141-4.25848-2.29021-4.26894-2.29021,0-.01832-1.60969-1.84263-1.60969-1.84263-.98525-1.00226-1.96851-2.00646-2.94979-3.01261,0-.03926-.30099-1.07051-.45543-1.59399.49993.15966,2.86342.94488,2.86342.94488l3.30837.9344c0,.00785,2.36088,1.47882,2.36088,1.47882,0,.01571,1.96827,2.40537,1.96827,2.40537.07067.05496,3.20629,1.37413,3.20629,1.37413l7.99088,1.03648.4659.05758-2.19336-2.30853c-.05497-.04188-4.28989-1.92378-4.28989-1.92378l-2.54148-1.85311c0-.03403-1.42124-2.58336-1.42124-2.58336l-1.48144-2.62786c-.02618-.03926-2.41847-2.29283-2.41847-2.29283-.03664-.02617-2.9812-1.717-2.9812-1.717l-2.91315-2.42369c0-.02355-.70145-1.4762-1.14904-2.44463l2.02324,1.94995,3.86587,3.38428c.04711.0288,2.9969,1.34534,2.9969,1.34534l2.52577,2.04156,2.93409,2.99429c.10208.04712,4.68774.69361,4.68774.69361l.57321.08376-4.65632-4.03339c0-.07329-1.05219-3.30576-1.05219-3.30576-.80543-.78365-1.61861-1.5593-2.4394-2.32685l-1.26682-1.48929c0-.03926-1.26158-3.8842-1.26158-3.8842-.86726-.90277-1.74148-1.79881-2.62262-2.68805,0-.02094-4.20614-3.9444-4.21661-3.9601v-.00785c0-.0602-.14919-.65958-.23555-1.05481.32194.16228.76166.39523.76166.39523l3.86064,2.24834c.03664.01832,4.63276,1.33225,4.63276,1.33225l4.79505,1.13594,5.54099.88468-1.30346-2.63571c-.09162-.08376-2.84771-1.20661-2.84771-1.20661l-2.55718-1.49191c-.02618-.00785-3.14872-1.32701-3.14872-1.32701l-2.75088-1.12548c0-.02617-1.78505-2.32947-2.77965-3.60152.95534.64126,2.42894,1.64371,2.42894,1.64371.07067.02355,2.47866.21463,2.47866.21463l7.55116.00262c0,.02094,3.0571,1.67251,3.0571,1.67774,0,.01047,2.60692,2.82154,2.60692,2.82154l.34287.36905-.31671-3.17227c-.03141-.09161-1.6882-2.16196-1.6882-2.16196-.04711-.03664-4.47311-2.48128-4.47311-2.48128l-3.51777-1.3244c-.02618-.00785-5.32639-.94488-5.35255-.94488v-.00785c0-.04973-1.01293-1.25634-1.01293-1.25634-.02095-.01047-3.87897-3.58058-3.87897-3.58058-.62353-.32587-1.2491-.64781-1.87667-.96581,0-.01047-.58891-.61509-.95534-.99722h1.98399c0,.03141,3.04141,1.85834,3.04141,1.85834.02618.01832,4.08573,1.32701,4.08573,1.32701l5.17979.75643h-.00523c0,.05496,1.92116,2.20645,1.92116,2.20645l2.8006,1.71963c1.06233.196,2.12589.38533,3.1906.56797l.44495.07067-6.55392-8.03014c-.04188-.03926-3.17488-1.72747-3.17488-1.72747-.02618-.01571-3.70098-1.1438-3.70098-1.1438,0-.03926-3.23509-3.70883-3.23509-3.70883-.03664-.03926-4.08834-2.47604-4.08834-2.47604-.97936-.24782-1.96092-.48689-2.94456-.71716.18322-.29576.79307-1.30084.79307-1.30608.01046.0288,3.24555-1.43433,3.24555-1.43433,0,.00785,4.74269-.92655,4.74269-.92655.12826-.10993.48683-1.24325.48683-1.24325-.06021-.19107-2.08605-1.505-2.08605-1.505-.80831-.26244-1.61795-.5207-2.42894-.77475-.14919.01832-1.4317.76951-1.4317.77475,0-.02355-3.96795.15705-3.96795.15705,0-.00262-4.74269-1.11762-4.74269-1.12286,0-.02355-4.88665-4.0962-4.88665-4.0962-.74792-.38513-1.49736-.76727-2.24834-1.14641-.05497-.01047-8.12699-.95535-8.14791-.95535,0-.10208-1.8976-2.93408-1.8976-2.93408l-2.59644-2.83724c-.01046-.01571-3.30576-2.98905-3.30576-2.98905l-.10208.21724-1.10453,2.44464c.00523-.02355-1.08883,1.66728-1.08883,1.66728v.04188c0,.31147.15442,1.94472.15442,1.94472.04711.10208,1.11501,1.19615,1.13856,1.22756-.05497,0-.40308,1.7013-.40308,1.71438-.01046-.11778-4.42862.06281-4.43647.06281,0-.02094-3.60937-1.67774-3.60937-1.67774-.02356-.01571-2.79014-.95272-2.79014-.95272-.05497-.01832-6.49112.1806-6.49112.1806-.14134.07329-1.23279,1.76412-1.23279,1.76412l-.14657.22248,2.83201.40831c0,.01047.41879.27744.65173.42663l-.72502.59153c0-.03664-3.93916-.21724-3.93916-.21724-.06544.01047-2.83724,1.13332-2.83724,1.13332l-.28791.12302,1.37413.92394c.08637.03141,5.97286.21724,5.97286.21724l4.37103,1.12548v.00523c0,.0602.83233,1.2485.83233,1.2485,0,0,.59152.83495.814,1.16212l-1.87142,1.03125c.02356-.00262-5.31852,2.25095-5.31852,2.25095l-11.04275,6.20058c-.01046-.01047-7.27109,1.07313-7.27109,1.07313-.05497.01832-2.84248,1.57043-2.84248,1.57043-.06021.04188-2.29806,3.14348-2.29806,3.14348-.02356.03926-1.29036,3.89991-1.29036,3.89991-.09947,6.55917.16227,6.71097.2565,6.76332.21724.1361,2.11223,1.20924,3.57796.42401,1.65943-.903,5.2112-1.79029,7.05647-2.1829.91085-.18583,1.33749.14134,1.41339.47898.09947.36905-.17537.87159-.85589,1.05742l-.38215.11255c-3.20891.87159-6.48325,1.92639-6.37594,3.16442l.56536.94488c1.4317,1.04433,5.15363.54965,7.12975.10208l2.0625-.57844c1.77982-.5418,3.80307-1.14641,5.53053-.95272.99721.11516,1.87667.54442,2.91576,1.03387,1.40816.68052,3.01784,1.45265,5.41798,1.6097,4.00198.27744,6.73452,1.08622,6.94915,1.32178.53657,1.09145.19106,2.70638-.07852,4.00459l-.20678,1.17521c-1.12024,10.15807-12.46137,21.64315-17.92646,27.15274-1.47621,1.49191-2.45248,2.47604-2.66188,2.88697l-.62817,1.45265c-.53134,1.34795-.96319,2.51007-2.6959,3.20629-1.00247.39-3.33978,2.14887-6.05138,4.17996-3.91561,2.92099-8.77085,6.55392-10.10834,6.39689-2.23787-.26435-12.68908-7.45954-13.1288-7.90187-10.17901-9.84922-14.43749-7.82859-16.98682-6.62459l-.40308.18845c-3.03618,1.38198-6.22413,9.98271-6.51205,11.82795l-1.23017,5.29759-.94488,3.89205c-.28006,1.31654-1.53378,4.55163-2.72993,7.67678l-2.45511,6.80519c-.40569,1.57566-1.38983,3.78997-2.19076,5.58027l-1.08622,2.65141c-.75643,3.11208-.76951,20.15648.54703,21.66409l.05758.06282.25912.0759c1.32178-.13611,4.15903-3.05972,5.52007-4.47049l.31408-.32717c1.15165-1.15689,2.37397-4.2454,2.37397-5.54363,0-1.27205-.59415-3.93131-.82971-4.65632-1.84263-5.62738-1.14641-10.99039-.81139-13.56067l.13348-1.14642c.09684-1.19353,1.29299-2.5153,2.45511-3.78212l1.46835-1.69869c.80616-1.07314,1.70129-1.42909,2.4996-1.74579l1.31131-.74858.20416-.21201c.86897-.87159,2.32685-2.34255,2.9655-4.31084l1.24587-5.38919.2722-1.43957c.06282-.28791.2094-.44757.4528-.49993.49469-.10993,1.23541.28268,1.55211.70407l9.00904,10.45384c2.30854,1.96565,4.67989,4.31084,4.67989,4.82646l-.00262.04449c0-.00785-.05497.00262-.05497.00262-1.26158.13088-7.60873-1.22233-8.66353-1.52332-8.62428-2.5284-12.56084-2.08343-15.59699,1.717-3.46018,4.35271-2.37135,17.68304-1.66466,19.14355.64911,1.32439,3.80568,17.56526,3.94702,19.72985.14134,2.12269.96319,5.91791,1.8217,6.7895l.23555.24081c1.06265,1.05219,3.86325,3.86587,4.35795,6.64031.53395,3.02046,6.94915,11.10819,9.3964,11.83318.3722.10781.77356.02987,1.07837-.2094,1.86619-1.32439,2.71423-7.7972,2.8163-10.52974.12039-3.40522-1.10191-5.05155-2.40014-6.81304l-.49731-.68837c-.95534-1.30346-2.63833-1.77721-3.74809-2.08866-.47375-.13349-1.12286-.29053-1.12286-.4371,0-.04972-.13088-5.03847-1.72223-6.00166-1.23802-.76166-2.50484-5.57502-2.65403-7.4072-.14396-1.81908-.84803-6.21106-1.7929-8.14007-.95534-1.93686-1.75887-5.50697-1.35057-8.26046.17014-1.18307,1.01293-1.55473,1.69869-1.66204,1.18307-.18845,2.54933.32194,2.76134.73548.47113.94749,9.56654,6.43353,12.63412,7.61135,1.90545.7224,4.48357,2.90007,6.7607,4.84216,1.62017,1.35841,3.01261,2.5284,3.88158,2.94456,1.17258.56536,4.49667.63078,7.16639.68314,1.41601.02356,2.88697.05759,3.0859.17537-1.0836.43449-1.0705,2.3347-.98152,2.94717,1.10714,7.86,29.70207,29.4508,31.91377,30.66266,2.55979,1.37413,11.74158,10.96161,12.54512,12.26505.83233,1.28774,1.6411,2.68805,1.48668,3.76642-.21986,1.59399.41879,3.41569,1.69607,4.90236,1.22233,1.38459,2.8163,2.21954,4.28989,2.21954,1.27728,0,2.13056-1.14642,2.76134-1.9735l.13349-.17275c1.70654-2.2588,4.23755-5.56717,4.56473-10.74175.34812-5.30544,2.7718-7.41243,3.56226-7.55116.35335-.06544.61247.04188.70668.27483.09685.24081-.02095.64388-.49993.96057-1.04696.70932-1.7013,3.0571-2.41847,5.56717-.00523.02095-.26697,2.56241-.26697,2.56241-.06021,1.8976-.13349,4.04909-2.02848,6.13515-2.83724,3.07282-6.09328,10.15806-6.93607,19.1043-.51039,5.38919,1.91593,13.15236,7.20827,23.04607l.36905.70668,1.4317,2.40276c1.44742,2.32685,3.86587,6.19536,3.75332,7.10096-.15442,1.2773-.27483,2.27975-2.47866,5.0463-2.4237,3.04141-11.26784,13.33294-12.13158,13.49525-1.75887,0-2.05466.22509-3.47064,1.29823l-1.49191,1.13596c-1.63325,1.15948-1.91855,2.02846-2.19336,2.79535-.20155.57842-.39261,1.0836-1.15166,1.65156l-.56798.38213c-.11778.10208-.4371.55226-3.99151,4.10931-4.07526,4.02816-5.89435,8.58765-5.26618,13.11831.20155,1.41601,1.42124,1.91068,5.03847,2.07558,3.61198.1675,11.89339-5.62736,12.26244-7.51452l.12826-.71976c.31671-1.70128.84803-4.56996,1.78505-4.98352,1.13071-.49467,3.06757-2.72993,4.4888-4.35533l.27483-.30625c.75643-.87421.93964-1.74318,1.12024-2.57026.15442-.65435.29576-1.31392.72502-1.91591.33764-.43972.83233-.68051,1.40554-.94486,1.0993-.5261,2.48389-1.19615,3.48113-3.70098.99198-2.45512,6.91251-6.70313,11.23643-9.79426,2.20908-1.57045,3.94177-2.82678,4.35533-3.37904.56798-.74073.91608-2.1672.91608-3.68006,0-1.79554-.48159-3.70622-1.60969-4.76887-1.6411-1.52332-3.18536-6.05663-3.64601-7.47787v-.03141c0-.58891-.05497-1.66728-.14396-3.67481-.01046-.09162-.01046-.18845-.01046-.27483,0-5.31067,7.89403-10.50618,11.30187-12.74405l1.55473-1.07314c12.35667-10.89879,14.77512-19.18543,15.23317-21.45992l.25127-2.7247c.0759-1.88714.13873-3.68527,1.27728-3.92084.44495-.08637,1.18568.2722,1.63586.80877.2565.29053.6334.89515.38215,1.59399-.56273,1.52855-.7512,16.89522-.75643,17.53385.04188.10731,1.32964,1.6254,1.32964,1.6254l.23555.27483.07067-.35858c.0157-.17798.72502-4.36579.72502-5.84724,0-1.65681,2.66449-8.75254,3.30837-8.87555,0,.02095.04188.08113.04188.08113.31148.98152.70932,3.40522.70932,5.95978,0,2.51007-.37951,5.1484-1.59922,6.67695-1.85049,2.29021-3.32407,5.91529-4.28466,8.30759l-.8899,2.03371c-.10044.28178-.14404.5807-.12826.87944,0,1.94734,1.00247,6.09851,1.66204,6.87063.17275.18322.31148.18322.40831.14919.21463-.08113.40831-.35858.40831-1.98922,0-6.21106,5.21907-10.71557,5.28187-10.7496,4.60137-3.65124,5.60382-10.42243,5.60382-15.58129,0-3.90513-.57321-6.88633-.58891-6.96748-.72761-1.07911-1.46399-2.15228-2.20908-3.21939.10731.05234.70668-.43972.90562-.59937.19891.2565,2.29544,3.03618,2.29544,3.03618.35335.49469,1.24849,1.93686,1.24849,2.51007,0,3.19583.49208,5.38396.84279,6.98841l.08637.37951c.36905,1.7013,2.66972,7.1376,2.7718,7.37056l.24604.57321.0759-.62293c0-.02618.36382-2.86865,0-5.30021-.2094-1.36367.05234-3.03618.31671-4.84216l.41879-4.14594c0-3.36858-.48159-5.4965-1.68297-7.43336l-.61247-.92918c-.24081-.37951-.47636-.7512-.45018-.8271l.45018-.19368c9.71836-3.29791,14.24119-10.45384,16.08382-14.41656,1.93165-4.19827,2.03369-10.66322,2.03369-11.90649,0-1.62017-.07065-10.02197-1.48142-14.33802-.82708-2.54671-.56273-5.28187-.28528-8.23428l.30101-5.05417c0-3.45756,1.8191-6.02522,3.58321-8.5065l2.10174-3.25603c1.37411-2.71162.64388-5.08558.09162-5.76349l-.0002.00026Z" style="fill-rule: evenodd; stroke-width: 0px;"></path><path d="M232.99719,82.9334c.16227.01047,2.22739-.97105,2.22739-.97105.09162-.18583-.38738-2.14102-.38738-2.14102-1.49055-1.76783-2.98859-3.52934-4.49406-5.2845l-.22248-.25912-.0759.32456-.48159,2.11747c.00262-.02094-1.42647,3.39737-1.42647,3.39737l-.06544.14396,3.01,1.53903,1.91593,1.13332h0Z" style="fill-rule: evenodd; stroke-width: 0px;"></path><path d="M233.89232,96.4993c.47636.17798,1.19615.09946,1.87667-.20415,1.04173-.48945,1.65681-1.32701,1.39244-1.92639l-.47898-.43187c-.47113-.1806-1.19091-.09946-1.86096.2094-.89254.39784-1.46311,1.06004-1.46311,1.62278,0,.10208.0288.21201.06282.29838l.47113.43187h-.00002ZM251.87114,89.07902l.85851.46327c.13954.30101.40815.52244.73025.602.37065.07745.75637-.01897,1.04696-.26173.23032-.1806.2853-.51825.13873-.94488-.23032-.70931-.97106-1.48406-1.76936-1.48406-1.02863,0-1.96827.11778-1.96827.87682.00262.42663.49208.58891.96319.74857h0ZM252.89977,92.11257c-.39784.29315-.57321.68837-.46067,1.08883l.08113.3324c.10208.39261.13873.47375.49993.51562l.65435.11778c.83756.21463,2.16195-.30624,2.46296-.97629.10208-.21724.18322-.63864-.38738-1.03648-.98152-.65435-2.19075-.51301-2.85032-.04188h0ZM255.57736,103.76255c-.24081-.11516-.13873-.4973.04711-1.05219.14919-.45281.2853-.8873.05234-1.12548-.20416-.19631-.56798-.1806-1.18568.04973-2.22477.80092-2.56505,3.06758-2.81106,4.72438l-.0759.51039c-.12826.73811.25127.98937.48683,1.07313.76689.27221,2.15149-.42401,2.46296-.95535.34812-.57321,2.26926-1.09668,3.66957-1.47882l.53657-.14657c.64911-.17798.98152-.42663,1.02863-.76428.07067-.44233-.41879-.84542-.85326-1.10454-.40308-.23818-1.00247-.06805-1.63063.11255-.62293.17013-1.293.34549-1.72748.15705h.00002ZM232.06278,104.6132c.49208-.04973.87682-.2408,1.12024-.59153.70932-1.05742.74596-2.55457.05759-3.91299-.66481-1.2956-1.80339-2.12532-2.9655-2.16719l.0157.00523-.25389-.03403-2.14102.16751c-1.13071.25127-2.18028,1.08622-2.43417,1.90807-.12826.41617-.05497.79569.23032,1.08097,1.717,1.81908,4.6825,3.67219,6.37071,3.54394h.00002ZM210.97975,102.89096c.2565.63079,1.4317.70146,3.15657.18845l.37951-.11516,3.09113-1.20924,4.47834-2.94456c.13088-.10208,1.30084-.98152,1.06004-1.54426-.17014-.36905-.75381-.30362-1.1752-.22509-1.23541.22509-2.44725.81924-3.73763,1.44742l-1.8217.84542-.80353.32979c-2.7718,1.14641-5.0437,2.17505-4.62753,3.22724h0ZM201.5624,106.16792c-.9318,0-1.35057.50516-1.69084.95272l-.41616.47113c-.71717.61509-.93703,2.10176-.84803,3.23247.03664.47113.17014,1.3244.6334,1.59661.88729.54703,1.31131.16228,2.21692-.69884l.70145-.602c.8899-.74595,1.92378-1.59137,2.05202-2.89221.06282-.54965-.06805-1.00246-.37428-1.34272-.54442-.59153-1.53902-.71716-2.27452-.71716h.00002ZM206.71342,106.57885c-.26697-.05758-.42664.02617-.51039.11255-.26958.26436-.15965.82971-.0759,1.28252l.05234.3167-.05497.19107c-.06021.16228-.12826.36905,0,.54442.11516.17537.39523.25127.87159.25127.60462.00523.66481-.05758.86897-.59677l.16227-.41617c.14657-.36643.14919-.69622.01046-.95797-.24865-.46066-.86636-.63602-1.32439-.72763h.00002ZM211.6943,114.65086c.67869-.03134,1.20346-.60693,1.1721-1.28561-.02931-.63481-.53731-1.1428-1.1721-1.17211-.66926.00428-1.20835.55031-1.20407,1.21958.00002.00266.00004.00532.00008.00798,0,.6779.53657,1.23017,1.20399,1.23017h0ZM234.13313,111.65657c-.35241-.06556-.71216.06947-.93441.35073-.3324.38737-2.35565,1.77459-3.83446,2.79014l-1.90806,1.35581-.15442.14919c-.23819.22509-.35597.36382-.20155.82971l.23294.32717.50254-.10208.74333-.27482,1.0705-.16751c1.05481-.1361,2.20908-.29315,2.75349-.85065l.70932-1.1595,1.05481-1.69345c.50516-.55751.53134-.93964.46067-1.15689-.08309-.21066-.27112-.36188-.49469-.39784ZM236.35005,118.49842c0,.62555.31148.87159.48683.95797.47375.25127,1.15427.00785,1.55996-.55751l1.37151-1.19353c.74333-.53394,1.57304-1.13594,2.30854-2.07035.68053-.87682.38738-1.41601.14396-1.64634-.4659-.45542-1.42385-.56012-1.74841-.29315l-.39523.26959c-.89777.58368-3.02308,1.96304-3.55703,3.64078-.10546.28612-.16295.58768-.17014.89253h0ZM245.28581,117.82314c-.28007-.40831-.76166-.57844-1.12024-.40308l-.96582.73286c-.68053.55489-1.52855,1.25896-2.26403,1.46574-1.78505.47898-4.20614,1.27728-4.35533,2.50222l-.00262.15966c0,.33765.1518.53918.29838.65173.67791.55226,2.32424.22509,3.51515-.22509,1.82693-.67528,2.93671-1.49977,4.37103-2.80322.88205-.80353.84279-1.60707.52347-2.08082l.00002-.00002ZM238.3445,131.93084l-.58106-.06544c-1.50237.40046-4.06742,4.8186-5.86817,8.11127l-.32194.57059-5.39704,10.12927-1.69346,3.22461c-.18845.29315-.12301.7224.15965,1.00246.26173.26173.71978.4057,1.27466.05496.90038-.59938,4.18519-3.85802,5.70851-6.41782l2.02848-2.79798c1.30084-1.69868,2.78229-3.5989,3.65124-5.86294l.30623-.77998c2.05989-5.34208,2.38183-6.15871.73286-7.16901l.00002.00002ZM258.63969,112.46012c-.646-.01462-1.18151.49722-1.19613,1.14321-.00002.0002-.00002.00039-.00002.00059,0,.63079.53657,1.1438,1.19615,1.1438s1.18568-.51301,1.18568-1.1438c-.00998-.64175-.53831-1.15388-1.18005-1.1439-.00188.00003-.00375.00006-.00563.0001ZM258.07171,117.2316c0,.63341.53657,1.14641,1.19615,1.14641.63889.00725,1.16268-.50479,1.16995-1.14368,0-.00091.00002-.00183.00002-.00274-.00719-.63936-.5306-1.15222-1.16997-1.14641-.64552-.01027-1.17901.50103-1.19615,1.14641ZM259.17103,119.76785c-.74596,0-1.36367.49468-1.36367,1.08622,0,.59938.6177,1.08883,1.36367,1.08883.75643,0,1.3689-.48684,1.3689-1.08883.00262-.59153-.61247-1.08622-1.3689-1.08622ZM259.11605,122.94012c-.85851,0-1.54425.5418-1.54425,1.20924,0,.66219.68576,1.20399,1.54425,1.20399s1.53378-.54442,1.53378-1.20399c0-.66744-.67529-1.20924-1.53378-1.20924ZM259.17103,126.96566c-.94488,0-1.72748.56274-1.72748,1.27205,0,.69884.78261,1.26158,1.72748,1.26158.95011,0,1.717-.56274,1.717-1.26158,0-.70931-.76689-1.27205-1.717-1.27205ZM258.58735,133.71327c1.07314-.09422,1.86096-.68314,1.80077-1.36366l-.33764-.6177c-.36905-.31147-1.01293-.46851-1.66728-.40831-1.03649.09422-1.80339.65435-1.80339,1.2956l.00523.06544.34812.61509c.3769.31933.99198.47636,1.6542.41355h-.00002ZM256.24217,137.07923l-.00523-.03141.00523.03141ZM258.52715,137.95082c1.20138-.17798,2.0494-.83756,1.95257-1.51809l-.35335-.56535c-.41879-.32194-1.16997-.45019-1.93686-.33765-1.18043.16489-2.0494.83756-1.95257,1.51809l.36382.56274c.42402.32456,1.1595.44758,1.92639.34026ZM256.5039,139.99499c0,.74072.90038,1.33225,2.08082,1.33225,1.1752,0,2.06512-.59153,2.06512-1.33225s-.8899-1.3244-2.06512-1.3244c-1.18307.00262-2.08082.58368-2.08082,1.3244ZM260.18394,144.32677c0-.78521-1.07314-1.38459-2.44463-1.38459-1.3558,0-2.42894.59938-2.42894,1.38459,0,.77998,1.07314,1.38983,2.42894,1.38983,1.37151,0,2.44463-.60985,2.44463-1.38983ZM258.624,147.98325c0-.76689-.80353-1.38721-1.77459-1.38721-.98675,0-1.79029.62032-1.79029,1.38721s.80353,1.38983,1.79029,1.38983c.97367,0,1.77459-.62293,1.77459-1.38983ZM257.78643,152.55582c0-.86112-.84803-1.57043-1.90283-1.57043-1.04173,0-1.88714.70931-1.88714,1.57043,0,.86897.84279,1.56781,1.88714,1.56781,1.05481,0,1.90283-.69884,1.90283-1.56781ZM256.24217,157.00537c0-.77474-.69622-1.38983-1.54425-1.38983-.84279,0-1.55473.61247-1.55473,1.38983,0,.76166.70932,1.38459,1.55473,1.38459.84803.00262,1.54425-.62293,1.54425-1.38459ZM253.56719,159.63847c-.81661,0-1.49191.62032-1.49191,1.38983,0,.76166.67529,1.38198,1.49191,1.38198.814,0,1.48144-.62293,1.48144-1.38198.00262-.76951-.66743-1.38983-1.48144-1.38983ZM252.30563,166.3154c.83756,0,1.5495-.53918,1.5495-1.20661s-.70932-1.19876-1.5495-1.19876c-.84279,0-1.53378.53395-1.53378,1.19876s.69099,1.20661,1.53378,1.20661ZM250.88439,169.23903c.77736,0,1.41601-.4528,1.41601-1.02339,0-.56798-.62817-1.01816-1.41601-1.01816-.814,0-1.4317.44757-1.4317,1.01816s.63865,1.02339,1.4317,1.02339ZM249.50503,172.0501c.74071,0,1.3689-.45805,1.3689-1.02601,0-.56273-.62817-1.02078-1.3689-1.02078-.76166,0-1.36367.45805-1.36367,1.02078-.00262.56798.60201,1.02601,1.36367,1.02601ZM209.1502,169.56097l.24604.04711,1.86357-.33502c1.6542-.36643,4.14594-.92393,7.21089-1.00508,2.24049-.06021,4.6694.7224,6.43353,1.29823,1.60184.53395,2.40014.76428,2.70375.43449.19106-.21724.07329-.53395-.03141-.75643-.48159-1.03911-2.5912-4.4548-9.47494-4.61183-4.47311-.10208-8.11912,2.93933-8.89911,4.22445-.15442.26173-.1963.45543-.11778.59937l.06544.1047.00002.00002ZM234.74822,182.50132c.4371-.28007.62555-.77474.59676-1.48406-.14657-2.7849-.89254-3.10159-2.42894-3.10159-1.55735,0-2.68282,1.56258-2.68282,2.37396,0,.76166.56011,1.42909,1.64633,1.9735.61509.32456,2.03109.78784,2.86865.23819h.00002ZM255.86789,216.54562c2.21954,1.03649,2.99953,1.40554,3.33194,1.5076.01046,0,.02095.03141.02095.03141,0,0,.0157-.01308.0157-.01833.15442.04711.20416.0288.24081-.02356-.02095-.0157-.10731-.14657-.15442-.18322.02618-.02095.05234-.0759.05234-.0759,0,0-.13873-.05759-.14919-.07067-1.46834-1.85311-10.30988-14.42441-12.19177-22.69795-.29576-1.36367-.64388-2.63308-1.53378-3.14085-.49993-.28007-1.13071-.30099-1.8976-.04449h-.00523c-.17798.05234-.30623.19891-.38738.41354-.07604.23288-.10885.47772-.09685.7224,0,2.95502,3.14872,11.08985,4.17735,12.76236,5.6902,9.23675,8.46985,10.75483,8.57717,10.81766h-.00002ZM328.13907,220.13929l-.33764.06544c.01046.05234.08639,2.52053.08639,5.6902,0,4.6223-.15967,10.78625-.96059,13.55543-.64911,2.2431-3.62506,6.53823-6.02784,9.97484,0,0-2.79537,4.19304-2.79537,4.19827-.07984.14022-.12051.29934-.11778.46067,0,.41354.2094.80353.57844,1.04696.28007.19368,1.293.69099,2.70375-.99198l1.78507-1.88714c2.38183-2.37658,5.34208-5.32639,7.42813-11.83843,2.28758-7.14808-2.30331-20.15123-2.34257-20.27426ZM253.67712,243.42878c.21463.21463.56273.27483.92654.14396.57235-.19813.97375-.71551,1.02339-1.31916.08637-.89515.70932-2.09653,1.63586-3.12254,1.0035-1.14061.92487-2.87073-.17798-3.91561l-1.18568-.47375c-.76166.02618-1.32964.63601-1.36103.65435-.39738,1.90183-.78562,3.80556-1.16474,5.71113v-.00523c-.11255.31671-.21463,1.82954.30361,2.32685h.00002ZM292.2312,264.50918l-.06021-.02618-.06021.02618c-.04711.03664-1.04173.49993-1.32439,1.47096-.19368.65435.16752,1.22233.45018,1.69084l.3324.62293.14396,1.24325.22509,1.82954c.11514.3897.48433.64814.8899.62293.4659-.0157,1.0077-.37428,1.18568-1.0993.24081-.98152.35858-2.31116.35858-4.0805-.00523-1.61492-2.0494-2.27975-2.14102-2.30067h.00002ZM232.39257,249.62412c-.13349-.15442-14.26737-15.49229-17.32184-19.50999-3.11208-4.11714-4.59875-4.42862-6.12205-3.58582-.22795.13028-.37757.364-.40046.62555-.21986,1.67251,3.31099,5.71898,6.40212,8.68971,4.3213,4.15902,17.08628,13.93495,17.21716,14.0318l.22509-.25127-.00002.00002ZM176.99563,204.35647c-2.86342-1.77721-7.82074-2.76396-7.87046-2.7849l-.13088.30099,5.49912,4.14594c.90562.74333,4.90759,3.22724,6.20059,2.21169.1699-.12818.26583-.33179.2565-.54442-.04188-.74596-1.42909-1.74318-3.95487-3.32932v.00002ZM175.65291,180.89161l.38738-.1649c.49469-.5575-.64388-2.14102-2.02848-3.42092-1.24849-1.15166-2.51792-1.89498-3.18275-1.85834l-.3769.16227c-.08079.09845-.12187.22355-.11516.35074,0,.7224.98937,1.99968,2.13841,3.07282,1.2511,1.15166,2.53102,1.90022,3.1775,1.85834ZM190.3469,178.88932l-.56273.03403c-1.06789.44757-2.76396,3.1618-4.11714,6.59841-.95272,2.42632-1.67251,5.0725-1.67251,6.66647,0,.75643.16227,1.26943.52347,1.42124l.55488-.03403c1.06789-.45543,2.75872-3.17488,4.12762-6.60105.95011-2.43155,1.66204-5.07773,1.66204-6.67434,0-.7512-.15442-1.26682-.51562-1.41077l-.00002.00004ZM163.89563,162.12759c-1.37936,0-2.47866.65435-2.47866,1.48144,0,.82187,1.0993,1.46834,2.47866,1.46834,1.40031,0,2.48912-.6465,2.48912-1.46834,0-.8271-1.08883-1.48144-2.48912-1.48144ZM155.0986,180.44143l.42925-.03926c.74596-.36643,1.87406-2.39491,2.7247-4.92593.90038-2.69329,1.39244-5.5855.52085-5.89435l-.42141.04449c-.75904.37428-1.88452,2.39752-2.72731,4.92593-.91608,2.6959-1.37936,5.58812-.52609,5.88911h0ZM157.40189,194.37376c.73286-.98152.87944-2.08605.33502-2.49961l-.6334-.13611c-.52872.06805-1.1595.51301-1.63063,1.16997-.73286.98152-.87944,2.08343-.33765,2.48912l.63602.14919c.52608-.08113,1.16474-.52085,1.63063-1.17258v.00002ZM156.5591,209.63312l-.06021-.03664-.27483-.0288c-.98937.23032-.29315,4.53855.21724,6.80519.72502,3.16442,1.70654,5.71898,2.38706,6.143l.05759.04188.26958.0288c1.00508-.23032.29315-4.55947-.21463-6.80519-.71978-3.18275-1.69084-5.72159-2.38183-6.14823h.00002ZM146.59211,215.41753c-.7983,0-1.44218.59152-1.44218,1.32964,0,.70145.64387,1.293,1.44218,1.293.79307,0,1.45788-.59152,1.45788-1.293.00262-.7381-.66219-1.32964-1.45788-1.32964ZM171.08034,246.69003c-.91908-.00439-1.67005.73256-1.68297,1.65156,0,.8899.75643,1.6254,1.68297,1.6254.91498.01608,1.67081-.7105,1.69084-1.6254-.01294-.92209-.76871-1.66031-1.69084-1.65156ZM253.86559,290.25901c.05234.08113.20416.35335.43449.32717l.09685-.00523.17798-.26697,1.51809-4.62753,1.18568-3.08328,1.01293-2.34519c.31148-.78784.31148-1.31392.00523-1.62017-.48683-.44495-1.49191-.06544-1.61492-.02095-.08113.06544-2.85294,4.69297-2.85294,4.69297-.5418.8271-.74596,1.94209-.74596,3.08851,0,1.63325.40831,3.26388.78261,3.86064l-.00004.00002ZM260.79118,313.37575l.05497-.4659c.03664-.27483.86897-6.71098-1.10978-9.19749-.40853-.54502-1.02837-.892-1.70654-.95534-.59414-.05497-1.00247.11778-1.22756.49208-1.20661,1.9735,3.52823,9.40688,3.73763,9.72882l.25127.39784v-.00002ZM271.8758,325.61986c-.94821-.01162-1.72628.74764-1.73789,1.69585-.00002.0018-.00004.00363-.00006.00543,0,.95536.77736,1.69605,1.73795,1.69605.93817,0,1.69869-.76054,1.69869-1.69869s-.76052-1.69869-1.69869-1.69869v.00004ZM245.77786,304.89018c-.814,0-1.5076.6334-1.5076,1.41601,0,.80353.69622,1.42124,1.5076,1.42124.83233,0,1.50237-.6177,1.50237-1.42124,0-.78261-.67004-1.41601-1.50237-1.41601ZM264.79577,329.99088l-.18322-.0419c-.90038,0-4.30822,2.98122-7.2135,5.95453-.2565.27222-6.56441,6.74239-5.72946,7.58517l.04711.05236.20416.0419c.91085,0,4.31346-2.99168,7.20304-5.9493.2722-.27481,6.59057-6.72142,5.72946-7.59563l-.05759-.04713ZM245.85377,347.48286c-.52608,0-1.35057.49208-2.08605,1.22754-.87944.87944-1.51809,2.09651-1.04696,2.59646l.03141.03139-.03141-.03139.4659.1675c.53657,0,1.36367-.48161,2.09653-1.23277.85851-.8899,1.51809-2.08082,1.02863-2.58599l-.45805-.17273ZM237.54358,359.45742c-.6465,0-1.55996.53134-2.35827,1.34008-.83495.83758-1.31392,1.76411-1.31392,2.40799,0,.24602.06544.44495.21986.5837l.58891.22509c.63601,0,1.57566-.51564,2.35827-1.32962,1.1595-1.18568,1.6254-2.45512,1.0993-3.00474l-.59414-.2225ZM194.09763,299.14502c-1.24587,0-2.2588.70932-2.2588,1.60445,0,.8899,1.01555,1.57566,2.2588,1.57566,1.25635,0,2.2588-.68576,2.2588-1.57566.00262-.89515-1.00247-1.60445-2.2588-1.60445ZM212.49784,300.43279c-.88467,0-1.57304.47636-1.57304,1.10453,0,.58891.68837,1.07314,1.57304,1.07314.85326,0,1.55996-.48683,1.55996-1.07314,0-.61509-.70668-1.10453-1.55996-1.10453ZM234.95498,307.94728l.13611-.2094c.25389-1.05742-5.0437-2.709-7.87572-3.42615-3.39999-.86897-7.44123-1.56519-8.33375-1.02863l-.06282.04188-.14396.21986c-.2565,1.06789,5.03847,2.69852,7.87572,3.43925,3.39736.85326,7.43861,1.52855,8.34423.99721l.06021-.03403h-.00002Z" style="fill: #fff; fill-rule: evenodd; stroke-width: 0px;"></path></g></g></svg> 